<mxfile host="app.diagrams.net" modified="2023-12-07T05:21:08.266Z" agent="Mozilla/5.0 (X11; Ubuntu; Linux x86_64; rv:109.0) Gecko/20100101 Firefox/113.0" version="22.1.5" etag="KGS7dwNxmOSMJeT1XhaY" type="github">
  <diagram name="Page-1" id="74QV-AU1dSpmydKm6NuD">
    <mxGraphModel>
      <root>
        <mxCell id="0" />
        <mxCell id="1" parent="0" />
      </root>
    </mxGraphModel>
  </diagram>
</mxfile>
